<svg xmlns="http://www.w3.org/2000/svg" fill="none" viewBox="0 0 134 28" height="28" width="134">
<g clip-path="url(#clip0_98_4170)">
<path fill="black" d="M14.7649 7.97628C18.6601 7.97628 21.0515 11.0897 21.0515 15.5671C21.0515 18.5764 20.2787 21.3253 18.9212 23.4078C17.3443 25.8965 14.8798 27.4063 12.0498 27.4063C9.36597 27.4063 7.34006 25.7923 6.82836 23.8556L5.47079 26.969H0.5L5.16795 0.5H11.2352L9.28243 11.4645C10.4207 9.29869 12.3735 7.98669 14.7649 7.98669V7.97628ZM8.29036 16.8479C7.99796 18.3473 7.80999 19.6697 7.80999 20.2216C7.80999 21.7626 8.72896 23.0434 10.5356 23.0434C11.9662 23.0434 13.0732 22.1271 13.8773 20.7005C14.5038 19.5239 14.838 17.9099 14.838 16.1919C14.838 13.9948 13.8459 12.714 12.0393 12.714C10.1283 12.714 8.77073 14.3592 8.29036 16.8583V16.8479Z"></path>
<path fill="black" d="M95.1228 23.21C94.4962 23.21 94.2456 22.8455 94.2456 22.2937C94.2456 22.1062 94.2873 21.8876 94.3187 21.6689L95.6449 14.2239C95.7598 13.672 95.7911 13.1618 95.7911 12.6828C95.7911 9.78807 93.9532 8.05957 90.9352 8.05957C88.2514 8.05957 86.048 9.63188 84.7635 12.0893C84.5755 9.55899 82.8524 8.05957 80.0538 8.05957C77.3908 8.05957 75.1561 9.50693 73.8507 11.9331C73.5583 9.4861 71.7935 8.05957 69.047 8.05957C66.3632 8.05957 64.1598 9.63188 62.8753 12.0893C62.6873 9.55899 60.9643 8.05957 58.1656 8.05957C55.3669 8.05957 53.3828 9.55899 52.0983 12.0893L51.9834 8.4969H46.8038L43.5352 27.0418H49.6024L51.2942 17.3997C51.8477 14.3176 53.1321 13.0056 54.8552 13.0056C56.0666 13.0056 56.5783 13.7032 56.5783 14.7653C56.5783 15.0569 56.5365 15.3901 56.4634 15.8274L54.4793 27.0418H60.5048L62.2278 17.3685C62.7395 14.328 64.0658 13.0056 65.7888 13.0056C67.0002 13.0056 67.4806 13.7032 67.4806 14.7653C67.4806 15.0569 67.4388 15.3901 67.3657 15.8274L66.2588 22.0229C66.2483 22.1166 66.2379 22.2104 66.2274 22.3041L65.392 27.0522H71.4593L72.3992 21.6689L73.2346 16.952C73.8298 14.203 75.0725 13.016 76.7121 13.016C77.9234 13.016 78.4351 13.7136 78.4351 14.7757C78.4351 15.0673 78.3933 15.4005 78.3202 15.8378L76.3361 27.0522H82.3616L84.0847 17.3789C84.5964 14.3384 85.9226 13.016 87.6457 13.016C88.8571 13.016 89.3374 13.7136 89.3374 14.7757C89.3374 15.0673 89.2957 15.4005 89.2226 15.8378L88.1156 22.0333C88.0425 22.4707 88.0008 22.9184 88.0008 23.3141C88.0008 25.7715 89.4732 27.3438 92.3032 27.3438C93.4833 27.3438 94.6946 27.0835 95.4256 26.6878L96.0835 22.9809C95.6763 23.1267 95.3839 23.1996 95.0497 23.1996L95.1228 23.21Z"></path>
<path fill="black" d="M106.924 27.5C101.995 27.5 98.5801 24.4595 98.5801 19.4406C98.5801 16.8791 99.2067 14.4529 100.46 12.5474C102.183 9.79847 105.023 8.08038 108.918 8.08038C114.171 8.08038 116.312 11.4853 116.312 15.338C116.312 16.5459 116.051 17.6808 115.612 18.8575H104.365V19.0449C104.365 21.5023 105.243 23.0434 107.31 23.0434C109.002 23.0434 109.994 22.1583 110.548 20.6276L115.289 22.2416C113.743 25.9068 110.474 27.5208 106.945 27.5208L106.924 27.5ZM104.72 15.994H110.527C110.673 15.7024 110.788 15.2963 110.788 14.8903C110.788 13.5366 110.13 12.3287 108.438 12.3287C107.112 12.3287 106.047 13.2138 105.316 14.5258C105.096 14.9631 104.877 15.4421 104.731 15.994H104.72Z"></path>
<path fill="black" d="M132.11 14.4425C131.599 14.1093 130.711 13.8907 129.719 13.8907C127.662 13.8907 125.782 15.3588 125.239 18.5139L123.735 27.0523H117.668L120.937 8.50733H126.189L126.116 12.6516C127.255 9.94427 129.28 8.14288 132.037 8.14288C132.518 8.14288 132.998 8.18453 133.51 8.28866L132.11 14.4425Z"></path>
<path fill="black" d="M31.7035 8.44486L30.8054 13.4638L29.6985 19.6593C29.6254 20.0966 29.5836 20.4298 29.5836 20.7214C29.5836 21.7835 30.0953 22.4811 31.3902 22.4811C33.1133 22.4811 34.6588 21.2004 35.2123 18.087L36.904 8.44486H42.9713L39.7027 26.9898H34.5231L34.4082 23.3974C33.1237 25.9277 30.8785 27.4271 28.1634 27.4271C25.1141 27.4271 23.2344 25.7819 23.2344 22.8039C23.2344 22.3249 23.2761 21.8147 23.3806 21.2628L24.0594 17.483L25.6571 8.43445H31.7035V8.44486Z"></path>
</g>
<defs>
<clipPath id="clip0_98_4170">
<rect transform="translate(0.5 0.5)" fill="white" height="27" width="133"></rect>
</clipPath>
</defs>
</svg>
