<svg width="40" height="40" viewBox="0 0 40 40" fill="none" xmlns="http://www.w3.org/2000/svg">
<g clip-path="url(#clip0_4005_1272)">
<rect width="40" height="40" fill="#040719"/>
<circle cx="20.0001" cy="20.4899" r="8.57143" fill="#0866FF"/>
<path d="M23.5024 23.218L24.0149 20.6466H21.032V19.7372C21.032 18.3783 21.6105 17.8557 23.1079 17.8557C23.5731 17.8557 23.9474 17.8661 24.163 17.887V15.5561C23.7546 15.4515 22.7563 15.347 22.1778 15.347C19.1262 15.347 17.7195 16.6745 17.7195 19.5386V20.6466H15.8364V23.218H17.7195V28.7577C18.4261 28.9192 19.1649 29.0613 19.9256 29.0613C20.3002 29.0613 20.6693 29.04 21.032 28.9997V23.218H23.5024Z" fill="white"/>
<path d="M12.1935 12.1935C11.8186 11.8186 11.8163 11.2075 12.22 10.8638C13.1727 10.0524 14.248 9.39383 15.4078 8.91345C16.5676 8.43306 17.7936 8.13838 19.041 8.03838C19.5695 7.99601 20 8.42981 20 8.96V8.96C20 9.49019 19.5692 9.91526 19.0414 9.96568C18.0464 10.0607 17.0693 10.3034 16.1426 10.6873C15.2158 11.0712 14.3533 11.5905 13.5825 12.2269C13.1736 12.5644 12.5684 12.5684 12.1935 12.1935V12.1935Z" fill="#FF9951"/>
<path d="M20.3407 8.96526C20.3571 8.43532 20.8008 8.01501 21.3277 8.07367C22.624 8.21799 23.8904 8.57296 25.0762 9.12653C26.262 9.6801 27.3472 10.423 28.2903 11.3241C28.6736 11.6904 28.6363 12.3004 28.2405 12.6532V12.6532C27.8448 13.006 27.2408 12.9674 26.852 12.607C26.0863 11.8973 25.2135 11.3096 24.264 10.8663C23.3145 10.423 22.3035 10.1313 21.2678 10C20.7418 9.93336 20.3244 9.4952 20.3407 8.96526V8.96526Z" fill="#FDEB48"/>
<path opacity="0.8" d="M28.5365 12.9993C28.9465 12.6631 29.555 12.721 29.8573 13.1565C31.2955 15.2279 32.0448 17.701 31.998 20.2223C31.9881 20.7524 31.5141 21.1382 30.9865 21.086V21.086C30.4588 21.0339 30.0782 20.5633 30.08 20.0331C30.0867 18.0197 29.4898 16.0494 28.3668 14.3783C28.0711 13.9382 28.1266 13.3355 28.5365 12.9993V12.9993Z" fill="#73FF57"/>
<path d="M9.0286 21.2289C8.50171 21.2879 8.02269 20.9083 8.00597 20.3784C7.96085 18.9483 8.17179 17.519 8.63147 16.1586C9.09115 14.7982 9.79039 13.5338 10.6937 12.4242C11.0284 12.013 11.6395 12.0018 12.0226 12.3683V12.3683C12.4057 12.7349 12.4151 13.34 12.0866 13.7562C11.3742 14.6591 10.8201 15.6792 10.4504 16.7732C10.0808 17.8672 9.90259 19.0144 9.92134 20.1643C9.92998 20.6944 9.5555 21.1698 9.0286 21.2289V21.2289Z" fill="#D72626"/>
<g filter="url(#filter0_ddddd_4005_1272)">
<path d="M29.426 23.3831L27.7972 22.7756C27.5046 22.6666 27.186 22.6666 26.8969 22.7756L25.2646 23.3831C24.8985 23.5212 24.6533 23.8742 24.6533 24.2633V25.9074C24.6533 26.624 24.9828 27.2423 25.4144 27.748C25.8428 28.25 26.3697 28.6393 26.765 28.8903C26.9444 29.0031 27.1456 29.0612 27.3471 29.0612C27.5485 29.0612 27.7497 29.0031 27.9291 28.8903C28.7159 28.3883 30.0411 27.337 30.0411 25.9074V24.2633C30.0411 23.8742 29.7918 23.5212 29.426 23.3831ZM28.6719 25.2709L27.4642 26.4677C27.3397 26.5914 27.1751 26.6533 27.014 26.6533C26.8494 26.6533 26.6845 26.5914 26.5603 26.4677L26.088 25.9983C25.9782 25.8928 25.9782 25.7183 26.088 25.6128C26.1942 25.5037 26.3661 25.5037 26.4759 25.6128L26.9479 26.0822C26.9845 26.1185 27.0394 26.1185 27.0759 26.0822L28.2837 24.8854C28.3899 24.7763 28.5619 24.7763 28.6716 24.8854C28.7778 24.9909 28.7781 25.1654 28.6719 25.2709Z" fill="url(#paint0_linear_4005_1272)"/>
</g>
<g style="mix-blend-mode:plus-lighter" opacity="0.6" filter="url(#filter1_f_4005_1272)">
<circle cx="20.0001" cy="20.4899" r="8.57143" fill="#0866FF"/>
<path d="M23.5029 23.218L24.0154 20.6466H21.0325V19.7372C21.0325 18.3783 21.611 17.8557 23.1084 17.8557C23.5735 17.8557 23.9479 17.8661 24.1634 17.887V15.5561C23.7551 15.4515 22.7568 15.347 22.1782 15.347C19.1267 15.347 17.72 16.6745 17.72 19.5386V20.6466H15.8369V23.218H17.72V28.7577C18.4266 28.9192 19.1654 29.0613 19.9261 29.0613C20.3007 29.0613 20.6698 29.04 21.0325 28.9997V23.218H23.5029Z" fill="white"/>
<path d="M12.1935 12.1935C11.8186 11.8186 11.8163 11.2075 12.22 10.8638C13.1727 10.0524 14.248 9.39383 15.4078 8.91345C16.5676 8.43306 17.7936 8.13838 19.041 8.03838C19.5695 7.99601 20 8.42981 20 8.96V8.96C20 9.49019 19.5692 9.91526 19.0414 9.96568C18.0464 10.0607 17.0693 10.3034 16.1426 10.6873C15.2158 11.0712 14.3533 11.5905 13.5825 12.2269C13.1736 12.5644 12.5684 12.5684 12.1935 12.1935V12.1935Z" fill="#FF9951"/>
<path d="M20.3407 8.96526C20.3571 8.43532 20.8008 8.01501 21.3277 8.07367C22.624 8.21799 23.8904 8.57296 25.0762 9.12653C26.262 9.6801 27.3472 10.423 28.2903 11.3241C28.6736 11.6904 28.6363 12.3004 28.2405 12.6532V12.6532C27.8448 13.006 27.2408 12.9674 26.852 12.607C26.0863 11.8973 25.2135 11.3096 24.264 10.8663C23.3145 10.423 22.3035 10.1313 21.2678 10C20.7418 9.93336 20.3244 9.4952 20.3407 8.96526V8.96526Z" fill="#FDEB48"/>
<path opacity="0.8" d="M28.5365 12.9993C28.9465 12.6631 29.555 12.721 29.8573 13.1565C31.2955 15.2279 32.0448 17.701 31.998 20.2223C31.9881 20.7524 31.5141 21.1382 30.9865 21.086V21.086C30.4588 21.0339 30.0782 20.5633 30.08 20.0331C30.0867 18.0197 29.4898 16.0494 28.3668 14.3783C28.0711 13.9382 28.1266 13.3355 28.5365 12.9993V12.9993Z" fill="#73FF57"/>
<path d="M9.0286 21.2289C8.50171 21.2879 8.02269 20.9083 8.00597 20.3784C7.96085 18.9483 8.17179 17.519 8.63147 16.1586C9.09115 14.7982 9.79039 13.5338 10.6937 12.4242C11.0284 12.013 11.6395 12.0018 12.0226 12.3683V12.3683C12.4057 12.7349 12.4151 13.34 12.0866 13.7562C11.3742 14.6591 10.8201 15.6792 10.4504 16.7732C10.0808 17.8672 9.90259 19.0144 9.92134 20.1643C9.92998 20.6944 9.5555 21.1698 9.0286 21.2289V21.2289Z" fill="#D72626"/>
<g filter="url(#filter2_ddddd_4005_1272)">
<path d="M29.413 23.3831L27.7944 22.7756C27.5035 22.6666 27.1869 22.6666 26.8996 22.7756L25.2774 23.3831C24.9136 23.5212 24.6699 23.8742 24.6699 24.2633V25.9074C24.6699 26.624 24.9974 27.2423 25.4263 27.748C25.852 28.25 26.3757 28.6393 26.7685 28.8903C26.9468 29.0031 27.1467 29.0612 27.347 29.0612C27.5472 29.0612 27.7472 29.0031 27.9254 28.8903C28.7073 28.3883 30.0243 27.337 30.0243 25.9074V24.2633C30.0243 23.8742 29.7766 23.5212 29.413 23.3831ZM28.6637 25.2709L27.4634 26.4677C27.3396 26.5914 27.1761 26.6533 27.016 26.6533C26.8524 26.6533 26.6885 26.5914 26.5651 26.4677L26.0957 25.9983C25.9866 25.8928 25.9866 25.7183 26.0957 25.6128C26.2012 25.5037 26.3721 25.5037 26.4812 25.6128L26.9503 26.0822C26.9867 26.1185 27.0412 26.1185 27.0775 26.0822L28.2778 24.8854C28.3834 24.7763 28.5543 24.7763 28.6634 24.8854C28.7689 24.9909 28.7692 25.1654 28.6637 25.2709Z" fill="url(#paint1_linear_4005_1272)"/>
</g>
</g>
</g>
<defs>
<filter id="filter0_ddddd_4005_1272" x="22.6533" y="21.6938" width="24.3877" height="37.3674" filterUnits="userSpaceOnUse" color-interpolation-filters="sRGB">
<feFlood flood-opacity="0" result="BackgroundImageFix"/>
<feColorMatrix in="SourceAlpha" type="matrix" values="0 0 0 0 0 0 0 0 0 0 0 0 0 0 0 0 0 0 127 0" result="hardAlpha"/>
<feOffset dy="1"/>
<feGaussianBlur stdDeviation="1"/>
<feColorMatrix type="matrix" values="0 0 0 0 0 0 0 0 0 0 0 0 0 0 0 0 0 0 0.35 0"/>
<feBlend mode="normal" in2="BackgroundImageFix" result="effect1_dropShadow_4005_1272"/>
<feColorMatrix in="SourceAlpha" type="matrix" values="0 0 0 0 0 0 0 0 0 0 0 0 0 0 0 0 0 0 127 0" result="hardAlpha"/>
<feOffset dx="2" dy="4"/>
<feGaussianBlur stdDeviation="2"/>
<feColorMatrix type="matrix" values="0 0 0 0 0 0 0 0 0 0 0 0 0 0 0 0 0 0 0.31 0"/>
<feBlend mode="normal" in2="effect1_dropShadow_4005_1272" result="effect2_dropShadow_4005_1272"/>
<feColorMatrix in="SourceAlpha" type="matrix" values="0 0 0 0 0 0 0 0 0 0 0 0 0 0 0 0 0 0 127 0" result="hardAlpha"/>
<feOffset dx="4" dy="8"/>
<feGaussianBlur stdDeviation="2.5"/>
<feColorMatrix type="matrix" values="0 0 0 0 0 0 0 0 0 0 0 0 0 0 0 0 0 0 0.18 0"/>
<feBlend mode="normal" in2="effect2_dropShadow_4005_1272" result="effect3_dropShadow_4005_1272"/>
<feColorMatrix in="SourceAlpha" type="matrix" values="0 0 0 0 0 0 0 0 0 0 0 0 0 0 0 0 0 0 127 0" result="hardAlpha"/>
<feOffset dx="6" dy="14"/>
<feGaussianBlur stdDeviation="3"/>
<feColorMatrix type="matrix" values="0 0 0 0 0 0 0 0 0 0 0 0 0 0 0 0 0 0 0.05 0"/>
<feBlend mode="normal" in2="effect3_dropShadow_4005_1272" result="effect4_dropShadow_4005_1272"/>
<feColorMatrix in="SourceAlpha" type="matrix" values="0 0 0 0 0 0 0 0 0 0 0 0 0 0 0 0 0 0 127 0" result="hardAlpha"/>
<feOffset dx="10" dy="23"/>
<feGaussianBlur stdDeviation="3.5"/>
<feColorMatrix type="matrix" values="0 0 0 0 0 0 0 0 0 0 0 0 0 0 0 0 0 0 0.01 0"/>
<feBlend mode="normal" in2="effect4_dropShadow_4005_1272" result="effect5_dropShadow_4005_1272"/>
<feBlend mode="normal" in="SourceGraphic" in2="effect5_dropShadow_4005_1272" result="shape"/>
</filter>
<filter id="filter1_f_4005_1272" x="-12" y="-11.9646" width="64" height="61.0259" filterUnits="userSpaceOnUse" color-interpolation-filters="sRGB">
<feFlood flood-opacity="0" result="BackgroundImageFix"/>
<feBlend mode="normal" in="SourceGraphic" in2="BackgroundImageFix" result="shape"/>
<feGaussianBlur stdDeviation="10" result="effect1_foregroundBlur_4005_1272"/>
</filter>
<filter id="filter2_ddddd_4005_1272" x="22.6699" y="21.6938" width="24.3545" height="37.3674" filterUnits="userSpaceOnUse" color-interpolation-filters="sRGB">
<feFlood flood-opacity="0" result="BackgroundImageFix"/>
<feColorMatrix in="SourceAlpha" type="matrix" values="0 0 0 0 0 0 0 0 0 0 0 0 0 0 0 0 0 0 127 0" result="hardAlpha"/>
<feOffset dy="1"/>
<feGaussianBlur stdDeviation="1"/>
<feColorMatrix type="matrix" values="0 0 0 0 0 0 0 0 0 0 0 0 0 0 0 0 0 0 0.35 0"/>
<feBlend mode="normal" in2="BackgroundImageFix" result="effect1_dropShadow_4005_1272"/>
<feColorMatrix in="SourceAlpha" type="matrix" values="0 0 0 0 0 0 0 0 0 0 0 0 0 0 0 0 0 0 127 0" result="hardAlpha"/>
<feOffset dx="2" dy="4"/>
<feGaussianBlur stdDeviation="2"/>
<feColorMatrix type="matrix" values="0 0 0 0 0 0 0 0 0 0 0 0 0 0 0 0 0 0 0.31 0"/>
<feBlend mode="normal" in2="effect1_dropShadow_4005_1272" result="effect2_dropShadow_4005_1272"/>
<feColorMatrix in="SourceAlpha" type="matrix" values="0 0 0 0 0 0 0 0 0 0 0 0 0 0 0 0 0 0 127 0" result="hardAlpha"/>
<feOffset dx="4" dy="8"/>
<feGaussianBlur stdDeviation="2.5"/>
<feColorMatrix type="matrix" values="0 0 0 0 0 0 0 0 0 0 0 0 0 0 0 0 0 0 0.18 0"/>
<feBlend mode="normal" in2="effect2_dropShadow_4005_1272" result="effect3_dropShadow_4005_1272"/>
<feColorMatrix in="SourceAlpha" type="matrix" values="0 0 0 0 0 0 0 0 0 0 0 0 0 0 0 0 0 0 127 0" result="hardAlpha"/>
<feOffset dx="6" dy="14"/>
<feGaussianBlur stdDeviation="3"/>
<feColorMatrix type="matrix" values="0 0 0 0 0 0 0 0 0 0 0 0 0 0 0 0 0 0 0.05 0"/>
<feBlend mode="normal" in2="effect3_dropShadow_4005_1272" result="effect4_dropShadow_4005_1272"/>
<feColorMatrix in="SourceAlpha" type="matrix" values="0 0 0 0 0 0 0 0 0 0 0 0 0 0 0 0 0 0 127 0" result="hardAlpha"/>
<feOffset dx="10" dy="23"/>
<feGaussianBlur stdDeviation="3.5"/>
<feColorMatrix type="matrix" values="0 0 0 0 0 0 0 0 0 0 0 0 0 0 0 0 0 0 0.01 0"/>
<feBlend mode="normal" in2="effect4_dropShadow_4005_1272" result="effect5_dropShadow_4005_1272"/>
<feBlend mode="normal" in="SourceGraphic" in2="effect5_dropShadow_4005_1272" result="shape"/>
</filter>
<linearGradient id="paint0_linear_4005_1272" x1="25.3485" y1="23.8435" x2="28.0288" y2="29.0232" gradientUnits="userSpaceOnUse">
<stop stop-color="white"/>
<stop offset="0.723066" stop-color="#FAFAFA"/>
<stop offset="1" stop-color="#999999"/>
</linearGradient>
<linearGradient id="paint1_linear_4005_1272" x1="25.3608" y1="23.8435" x2="28.0507" y2="29.0096" gradientUnits="userSpaceOnUse">
<stop stop-color="white"/>
<stop offset="0.723066" stop-color="#FAFAFA"/>
<stop offset="1" stop-color="#999999"/>
</linearGradient>
<clipPath id="clip0_4005_1272">
<rect width="40" height="40" fill="white"/>
</clipPath>
</defs>
</svg>
