<svg width="40" height="40" viewBox="0 0 40 40" fill="none" xmlns="http://www.w3.org/2000/svg">
<g clip-path="url(#clip0_4005_1227)">
<rect width="40" height="40" fill="#040719"/>
<path d="M14.4073 12.6636C14.5166 12.3928 14.7967 12.1943 15.0928 12.2097C15.3182 12.2238 15.5618 12.1695 15.7705 12.2809C15.9865 12.3876 16.1552 12.6072 16.1633 12.8529C16.1678 12.9855 16.1623 13.118 16.1659 13.2505C16.1667 13.5184 16.1657 13.7863 16.1659 14.0542C15.7126 14.0537 15.2592 14.056 14.8058 14.0516C14.6559 14.0524 14.503 14.0466 14.3569 14.0863C14.3483 13.7278 14.3546 13.3689 14.3514 13.0102C14.3488 12.8926 14.3595 12.7723 14.4073 12.6636Z" fill="#35364E" stroke="#35364E" stroke-width="0.125"/>
<path d="M14.3364 16.2583C14.4974 16.304 14.6661 16.2917 14.8315 16.2925C15.2763 16.2878 15.7213 16.2998 16.1658 16.2841C16.1666 17.8474 16.1655 19.4105 16.1658 20.9735C15.6957 20.9714 15.2257 20.973 14.7556 20.9722C14.6166 20.9722 14.4755 20.9675 14.3396 21.0025C14.3388 19.4212 14.3453 17.8396 14.3364 16.2583Z" fill="#35364E" stroke="#35364E" stroke-width="0.125"/>
<path d="M14.3402 23.0669C14.4062 23.0852 14.4746 23.0953 14.5432 23.0953C15.0842 23.0972 15.6252 23.0935 16.1662 23.099L16.1654 23.1206C16.155 23.2286 16.1524 23.3371 16.1555 23.4459C16.156 24.8728 16.1555 26.2999 16.1553 27.7268C15.7794 27.5445 15.4298 27.3131 15.0889 27.0728C14.8291 26.8908 14.5826 26.6904 14.3426 26.483C14.3371 25.3444 14.3418 24.2055 14.3402 23.0669Z" fill="#35364E" stroke="#35364E" stroke-width="0.125"/>
<path d="M16.1656 13.2504C17.3866 12.6366 18.7595 12.3325 20.1248 12.3541C20.6883 12.3648 21.2494 12.441 21.7979 12.5696C22.9446 12.8286 24.0348 13.3352 24.9681 14.0504C24.9214 14.0504 24.8755 14.0504 24.8296 14.0504C23.5736 14.052 22.3178 14.0515 21.0618 14.0512C19.4296 14.0559 17.7977 14.0525 16.1656 14.0541C16.1653 13.7862 16.1664 13.5183 16.1656 13.2504Z" fill="#B7DCF8" stroke="#B7DCF8" stroke-width="0.125"/>
<path d="M11.8549 19.0112C12.1653 17.4085 12.9729 15.9146 14.1011 14.74C14.1102 15.1281 14.0951 15.5166 14.1006 15.9047C14.0985 16.0573 14.1958 16.2008 14.3364 16.2584C14.3453 17.8397 14.3387 19.4213 14.3395 21.0026C14.2216 21.0587 14.1066 21.163 14.1074 21.3036C14.1055 21.7825 14.1053 22.2617 14.1063 22.7404C14.1024 22.8893 14.2161 23.0036 14.3403 23.067C14.3419 24.2056 14.3372 25.3445 14.3427 26.4831C13.605 25.7999 12.9935 24.9814 12.5516 24.078C12.314 23.5816 12.1084 23.068 11.9731 22.5338C11.6806 21.3868 11.6358 20.1751 11.8549 19.0112Z" fill="#B7DCF8" stroke="#B7DCF8" stroke-width="0.125"/>
<path d="M24.6551 17.8241C25.2128 17.0365 25.7788 16.2548 26.3263 15.4602C26.6313 15.8752 26.9127 16.3077 27.1499 16.7655C27.6152 17.6678 27.928 18.6528 28.0357 19.6636C28.1424 20.6395 28.0626 21.6341 27.8103 22.5823C27.3969 24.1148 26.5327 25.5232 25.3476 26.5802C24.2672 27.5589 22.9167 28.2426 21.4825 28.5131C20.4663 28.7126 19.4101 28.7205 18.3943 28.512C17.6201 28.3597 16.8654 28.1007 16.165 27.7363C16.1656 26.1977 16.1648 24.6592 16.1656 23.1207L16.1663 23.0991C16.4408 23.1017 16.7149 23.0985 16.9893 23.0998C18.236 23.0993 19.4826 23.0988 20.7292 23.1001C22.3382 23.0988 23.9471 23.1004 25.5563 23.0993C25.9598 23.0954 26.3488 22.8306 26.4899 22.4508C26.6057 22.1644 26.5538 21.8248 26.3736 21.5767C25.7783 20.7628 25.1961 19.9393 24.6005 19.1257C24.4052 18.905 24.3037 18.5931 24.3848 18.3033C24.4265 18.1204 24.5507 17.9743 24.6551 17.8241Z" fill="#B7DCF8" stroke="#B7DCF8" stroke-width="0.125"/>
<path d="M16.1656 16.2841C16.3479 16.2781 16.5302 16.2744 16.7126 16.275C16.9043 16.2768 17.09 16.3892 17.1727 16.5635C17.269 16.7471 17.2293 16.9589 17.2275 17.1569C17.2293 18.2614 17.2299 19.3656 17.2288 20.4697C17.2348 20.7163 17.0366 20.9528 16.7869 20.9711C16.5803 20.9857 16.3727 20.9667 16.1656 20.9735C16.1653 19.4104 16.1664 17.8474 16.1656 16.2841Z" fill="#B7DCF8" stroke="#B7DCF8" stroke-width="0.125"/>
<path d="M14.3569 14.0865C14.503 14.0468 14.6558 14.0526 14.8058 14.0518C15.2592 14.0562 15.7126 14.0539 16.1659 14.0544C17.7981 14.0528 19.43 14.0562 21.0622 14.0515C20.9583 14.2323 20.885 14.4282 20.7979 14.6173C19.7167 17.0083 18.6472 19.4045 17.567 21.796C17.3836 22.2348 17.1705 22.6602 16.9894 23.1C16.715 23.0987 16.4409 23.1018 16.1664 23.0992C15.6254 23.0938 15.0844 23.0974 14.5434 23.0956C14.4748 23.0956 14.4065 23.0854 14.3405 23.0672C14.2163 23.0038 14.1026 22.8895 14.1065 22.7406C14.1054 22.2619 14.1057 21.7827 14.1075 21.3038C14.1067 21.1632 14.2218 21.0588 14.3397 21.0028C14.4756 20.9678 14.6167 20.9725 14.7557 20.9725C15.2258 20.9733 15.6959 20.9717 16.1659 20.9738C16.373 20.967 16.5807 20.9861 16.7873 20.9714C17.0369 20.9532 17.2352 20.7166 17.2292 20.4701C17.2302 19.3659 17.2297 18.2617 17.2279 17.1572C17.2297 16.9593 17.2693 16.7474 17.1731 16.5638C17.0904 16.3895 16.9047 16.2771 16.7129 16.2753C16.5306 16.2748 16.3483 16.2784 16.1659 16.2844C15.7214 16.3001 15.2764 16.2881 14.8317 16.2928C14.6663 16.292 14.4975 16.3042 14.3366 16.2586C14.196 16.201 14.0987 16.0575 14.1007 15.9049C14.0953 15.5167 14.1104 15.1283 14.1013 14.7402C14.102 14.586 14.0752 14.4217 14.1433 14.2772C14.1834 14.1869 14.2659 14.1209 14.3569 14.0865Z" fill="#F39A21" stroke="#F39A21" stroke-width="0.125"/>
<path d="M24.8301 14.0506C24.876 14.0506 24.9219 14.0506 24.9686 14.0506C25.2198 14.0546 25.4718 14.0399 25.7225 14.0611C26.1164 14.1012 26.4365 14.4477 26.4863 14.8335C26.5207 15.0536 26.4458 15.2769 26.3266 15.4603C25.7791 16.2549 25.2131 17.0366 24.6553 17.8242C24.551 17.9744 24.4268 18.1205 24.3851 18.3033C24.304 18.5932 24.4054 18.9051 24.6008 19.1258C25.1964 19.9394 25.7786 20.7629 26.3739 21.5768C26.5541 21.8249 26.606 22.1645 26.4902 22.4509C26.3491 22.8307 25.9601 23.0955 25.5566 23.0994C23.9474 23.1005 22.3384 23.0989 20.7295 23.1002C20.8364 22.8631 20.9528 22.6301 21.0553 22.3909C21.9078 20.5055 22.7673 18.6229 23.6218 16.7382C24.0251 15.8427 24.4219 14.9441 24.8301 14.0506Z" fill="#F39A21" stroke="#F39A21" stroke-width="0.125"/>
<path d="M21.0615 14.0513C22.3175 14.0516 23.5732 14.0521 24.8293 14.0505C24.421 14.944 24.0243 15.8426 23.621 16.7381C22.7664 18.6228 21.9069 20.5054 21.0544 22.3908C20.9519 22.63 20.8356 22.863 20.7286 23.1001C19.482 23.0988 18.2354 23.0993 16.9888 23.0998C17.1698 22.66 17.3829 22.2346 17.5663 21.7958C18.6465 19.4043 19.716 17.0081 20.7972 14.6171C20.8844 14.428 20.9577 14.2321 21.0615 14.0513Z" fill="#F6A744" stroke="#F6A744" stroke-width="0.125"/>
<path d="M12.1935 12.1935C11.8186 11.8186 11.8163 11.2075 12.22 10.8638C13.1727 10.0524 14.248 9.39383 15.4078 8.91345C16.5676 8.43306 17.7936 8.13838 19.041 8.03838C19.5695 7.99601 20 8.42981 20 8.96V8.96C20 9.49019 19.5692 9.91526 19.0414 9.96568C18.0464 10.0607 17.0693 10.3034 16.1426 10.6873C15.2158 11.0712 14.3533 11.5905 13.5825 12.2269C13.1736 12.5644 12.5684 12.5684 12.1935 12.1935V12.1935Z" fill="#FF9951"/>
<path d="M20.3407 8.96526C20.3571 8.43532 20.8007 8.01501 21.3277 8.07367C22.624 8.21799 23.8904 8.57296 25.0762 9.12653C26.262 9.6801 27.3472 10.423 28.2903 11.3241C28.6736 11.6904 28.6363 12.3004 28.2405 12.6532V12.6532C27.8448 13.006 27.2408 12.9674 26.852 12.607C26.0863 11.8973 25.2135 11.3096 24.264 10.8663C23.3145 10.423 22.3035 10.1313 21.2678 10C20.7418 9.93336 20.3244 9.4952 20.3407 8.96526V8.96526Z" fill="#FDEB48"/>
<path opacity="0.8" d="M28.5365 12.9993C28.9465 12.6631 29.5549 12.721 29.8573 13.1565C31.2955 15.2279 32.0448 17.701 31.998 20.2223C31.9881 20.7524 31.5141 21.1382 30.9865 21.086V21.086C30.4588 21.0339 30.0782 20.5633 30.08 20.0331C30.0867 18.0197 29.4897 16.0494 28.3668 14.3783C28.0711 13.9382 28.1266 13.3355 28.5365 12.9993V12.9993Z" fill="#73FF57"/>
<path d="M9.0286 21.2289C8.50171 21.2879 8.02269 20.9083 8.00597 20.3784C7.96085 18.9483 8.17179 17.519 8.63147 16.1586C9.09115 14.7982 9.79039 13.5338 10.6937 12.4242C11.0284 12.013 11.6395 12.0018 12.0226 12.3683V12.3683C12.4057 12.7349 12.4151 13.34 12.0866 13.7562C11.3742 14.6591 10.8201 15.6792 10.4504 16.7732C10.0808 17.8672 9.90259 19.0144 9.92134 20.1643C9.92998 20.6944 9.5555 21.1698 9.0286 21.2289V21.2289Z" fill="#D72626"/>
<g filter="url(#filter0_ddddd_4005_1227)">
<path d="M29.4255 23.3831L27.7967 22.7756C27.5041 22.6666 27.1855 22.6666 26.8964 22.7756L25.2641 23.3831C24.898 23.5212 24.6528 23.8742 24.6528 24.2633V25.9074C24.6528 26.624 24.9824 27.2423 25.414 27.748C25.8423 28.25 26.3692 28.6393 26.7645 28.8903C26.9439 29.0031 27.1451 29.0612 27.3466 29.0612C27.5481 29.0612 27.7492 29.0031 27.9286 28.8903C28.7154 28.3883 30.0406 27.337 30.0406 25.9074V24.2633C30.0406 23.8742 29.7913 23.5212 29.4255 23.3831ZM28.6714 25.2709L27.4637 26.4677C27.3392 26.5914 27.1746 26.6533 27.0135 26.6533C26.8489 26.6533 26.684 26.5914 26.5598 26.4677L26.0875 25.9983C25.9777 25.8928 25.9777 25.7183 26.0875 25.6128C26.1937 25.5037 26.3657 25.5037 26.4754 25.6128L26.9474 26.0822C26.984 26.1185 27.0389 26.1185 27.0754 26.0822L28.2832 24.8854C28.3894 24.7763 28.5614 24.7763 28.6712 24.8854C28.7774 24.9909 28.7777 25.1654 28.6714 25.2709Z" fill="url(#paint0_linear_4005_1227)"/>
</g>
<g style="mix-blend-mode:plus-lighter" opacity="0.4" filter="url(#filter1_f_4005_1227)">
<path d="M14.4068 12.6636C14.5161 12.3928 14.7962 12.1943 15.0923 12.2097C15.3177 12.2238 15.5613 12.1695 15.77 12.2809C15.986 12.3876 16.1548 12.6072 16.1628 12.8529C16.1673 12.9855 16.1618 13.118 16.1655 13.2505C16.1662 13.5184 16.1652 13.7863 16.1655 14.0542C15.7121 14.0537 15.2587 14.056 14.8054 14.0516C14.6554 14.0524 14.5025 14.0466 14.3564 14.0863C14.3478 13.7278 14.3541 13.3689 14.3509 13.0102C14.3483 12.8926 14.359 12.7723 14.4068 12.6636Z" fill="#35364E" stroke="#35364E" stroke-width="0.125"/>
<path d="M14.3359 16.2583C14.4969 16.304 14.6657 16.2917 14.831 16.2925C15.2758 16.2878 15.7208 16.2998 16.1653 16.2841C16.1661 17.8474 16.165 19.4105 16.1653 20.9735C15.6952 20.9714 15.2252 20.973 14.7551 20.9722C14.6161 20.9722 14.475 20.9675 14.3391 21.0025C14.3383 19.4212 14.3448 17.8396 14.3359 16.2583Z" fill="#35364E" stroke="#35364E" stroke-width="0.125"/>
<path d="M14.3402 23.0669C14.4062 23.0852 14.4746 23.0953 14.5432 23.0953C15.0842 23.0972 15.6252 23.0935 16.1662 23.099L16.1654 23.1206C16.155 23.2286 16.1524 23.3371 16.1555 23.4459C16.156 24.8728 16.1555 26.2999 16.1553 27.7268C15.7794 27.5445 15.4298 27.3131 15.0889 27.0728C14.8291 26.8908 14.5826 26.6904 14.3426 26.483C14.3371 25.3444 14.3418 24.2055 14.3402 23.0669Z" fill="#35364E" stroke="#35364E" stroke-width="0.125"/>
<path d="M16.1651 13.2504C17.3861 12.6366 18.759 12.3325 20.1243 12.3541C20.6878 12.3648 21.2489 12.441 21.7974 12.5696C22.9442 12.8286 24.0343 13.3352 24.9676 14.0504C24.9209 14.0504 24.875 14.0504 24.8291 14.0504C23.5731 14.052 22.3173 14.0515 21.0613 14.0512C19.4291 14.0559 17.7972 14.0525 16.1651 14.0541C16.1648 13.7862 16.1659 13.5183 16.1651 13.2504Z" fill="#B7DCF8" stroke="#B7DCF8" stroke-width="0.125"/>
<path d="M11.8549 19.0112C12.1653 17.4085 12.9729 15.9146 14.1011 14.74C14.1102 15.1281 14.0951 15.5166 14.1006 15.9047C14.0985 16.0573 14.1958 16.2008 14.3364 16.2584C14.3453 17.8397 14.3387 19.4213 14.3395 21.0026C14.2216 21.0587 14.1066 21.163 14.1074 21.3036C14.1055 21.7825 14.1053 22.2617 14.1063 22.7404C14.1024 22.8893 14.2161 23.0036 14.3403 23.067C14.3419 24.2056 14.3372 25.3445 14.3427 26.4831C13.605 25.7999 12.9935 24.9814 12.5516 24.078C12.314 23.5816 12.1084 23.068 11.9731 22.5338C11.6806 21.3868 11.6358 20.1751 11.8549 19.0112Z" fill="#B7DCF8" stroke="#B7DCF8" stroke-width="0.125"/>
<path d="M24.6551 17.8241C25.2128 17.0365 25.7788 16.2548 26.3263 15.4602C26.6313 15.8752 26.9127 16.3077 27.1499 16.7655C27.6152 17.6678 27.928 18.6528 28.0357 19.6636C28.1424 20.6395 28.0626 21.6341 27.8103 22.5823C27.3969 24.1148 26.5327 25.5232 25.3476 26.5802C24.2672 27.5589 22.9167 28.2426 21.4825 28.5131C20.4663 28.7126 19.4101 28.7205 18.3943 28.512C17.6201 28.3597 16.8654 28.1007 16.165 27.7363C16.1656 26.1977 16.1648 24.6592 16.1656 23.1207L16.1663 23.0991C16.4408 23.1017 16.7149 23.0985 16.9893 23.0998C18.236 23.0993 19.4826 23.0988 20.7292 23.1001C22.3382 23.0988 23.9471 23.1004 25.5563 23.0993C25.9598 23.0954 26.3488 22.8306 26.4899 22.4508C26.6057 22.1644 26.5538 21.8248 26.3736 21.5767C25.7783 20.7628 25.1961 19.9393 24.6005 19.1257C24.4052 18.905 24.3037 18.5931 24.3848 18.3033C24.4265 18.1204 24.5507 17.9743 24.6551 17.8241Z" fill="#B7DCF8" stroke="#B7DCF8" stroke-width="0.125"/>
<path d="M16.1651 16.2841C16.3474 16.2781 16.5298 16.2744 16.7121 16.275C16.9038 16.2768 17.0895 16.3892 17.1722 16.5635C17.2685 16.7471 17.2288 16.9589 17.227 17.1569C17.2288 18.2614 17.2294 19.3656 17.2283 20.4697C17.2343 20.7163 17.0361 20.9528 16.7864 20.9711C16.5798 20.9857 16.3722 20.9667 16.1651 20.9735C16.1648 19.4104 16.1659 17.8474 16.1651 16.2841Z" fill="#B7DCF8" stroke="#B7DCF8" stroke-width="0.125"/>
<path d="M14.3559 14.0867C14.502 14.0471 14.6549 14.0528 14.8049 14.052C15.2582 14.0565 15.7116 14.0541 16.1649 14.0546C17.7971 14.0531 19.429 14.0565 21.0612 14.0518C20.9574 14.2325 20.8841 14.4284 20.7969 14.6176C19.7157 17.0085 18.6462 19.4047 17.566 21.7963C17.3826 22.235 17.1695 22.6605 16.9885 23.1003C16.714 23.099 16.4399 23.1021 16.1655 23.0995C15.6245 23.094 15.0834 23.0977 14.5424 23.0958C14.4738 23.0958 14.4055 23.0857 14.3395 23.0674C14.2153 23.004 14.1016 22.8898 14.1055 22.7408C14.1045 22.2621 14.1047 21.783 14.1065 21.304C14.1058 21.1634 14.2208 21.0591 14.3387 21.003C14.4746 20.968 14.6157 20.9727 14.7548 20.9727C15.2248 20.9735 15.6949 20.972 16.1649 20.974C16.3721 20.9673 16.5797 20.9863 16.7863 20.9717C17.0359 20.9534 17.2342 20.7168 17.2282 20.4703C17.2292 19.3661 17.2287 18.2619 17.2269 17.1575C17.2287 16.9595 17.2684 16.7477 17.1721 16.564C17.0894 16.3898 16.9037 16.2774 16.712 16.2755C16.5296 16.275 16.3473 16.2787 16.1649 16.2847C15.7205 16.3003 15.2754 16.2883 14.8307 16.293C14.6653 16.2922 14.4965 16.3045 14.3356 16.2588C14.195 16.2012 14.0977 16.0577 14.0998 15.9051C14.0943 15.517 14.1094 15.1286 14.1003 14.7404C14.1011 14.5862 14.0742 14.4219 14.1423 14.2774C14.1825 14.1871 14.2649 14.1211 14.3559 14.0867Z" fill="#F39A21" stroke="#F39A21" stroke-width="0.125"/>
<path d="M24.8291 14.0506C24.8751 14.0506 24.921 14.0506 24.9677 14.0506C25.2189 14.0546 25.4708 14.0399 25.7215 14.0611C26.1154 14.1012 26.4355 14.4477 26.4853 14.8335C26.5197 15.0536 26.4449 15.2769 26.3257 15.4603C25.7781 16.2549 25.2121 17.0366 24.6544 17.8242C24.55 17.9744 24.4259 18.1205 24.3841 18.3033C24.303 18.5932 24.4045 18.9051 24.5999 19.1258C25.1954 19.9394 25.7776 20.7629 26.3729 21.5768C26.5531 21.8249 26.605 22.1645 26.4892 22.4509C26.3481 22.8307 25.9592 23.0955 25.5556 23.0994C23.9464 23.1005 22.3375 23.0989 20.7285 23.1002C20.8355 22.8631 20.9518 22.6301 21.0543 22.3909C21.9068 20.5055 22.7663 18.6229 23.6209 16.7382C24.0241 15.8427 24.4209 14.9441 24.8291 14.0506Z" fill="#F39A21" stroke="#F39A21" stroke-width="0.125"/>
<path d="M21.062 14.0513C22.318 14.0516 23.5737 14.0521 24.8297 14.0505C24.4215 14.944 24.0248 15.8426 23.6215 16.7381C22.7669 18.6228 21.9074 20.5054 21.0549 22.3908C20.9524 22.63 20.8361 22.863 20.7291 23.1001C19.4825 23.0988 18.2359 23.0993 16.9893 23.0998C17.1703 22.66 17.3834 22.2346 17.5668 21.7958C18.647 19.4043 19.7165 17.0081 20.7977 14.6171C20.8849 14.428 20.9582 14.2321 21.062 14.0513Z" fill="#F6A744" stroke="#F6A744" stroke-width="0.125"/>
<path d="M12.1935 12.1935C11.8186 11.8186 11.8163 11.2075 12.22 10.8638C13.1727 10.0524 14.248 9.39383 15.4078 8.91345C16.5676 8.43306 17.7936 8.13838 19.041 8.03838C19.5695 7.99601 20 8.42981 20 8.96V8.96C20 9.49019 19.5692 9.91526 19.0414 9.96568C18.0464 10.0607 17.0693 10.3034 16.1426 10.6873C15.2158 11.0712 14.3533 11.5905 13.5825 12.2269C13.1736 12.5644 12.5684 12.5684 12.1935 12.1935V12.1935Z" fill="#FF9951"/>
<path d="M20.3407 8.96526C20.3571 8.43532 20.8007 8.01501 21.3277 8.07367C22.624 8.21799 23.8904 8.57296 25.0762 9.12653C26.262 9.6801 27.3472 10.423 28.2903 11.3241C28.6736 11.6904 28.6363 12.3004 28.2405 12.6532V12.6532C27.8448 13.006 27.2408 12.9674 26.852 12.607C26.0863 11.8973 25.2135 11.3096 24.264 10.8663C23.3145 10.423 22.3035 10.1313 21.2678 10C20.7418 9.93336 20.3244 9.4952 20.3407 8.96526V8.96526Z" fill="#FDEB48"/>
<path opacity="0.8" d="M28.5365 12.9993C28.9465 12.6631 29.5549 12.721 29.8573 13.1565C31.2955 15.2279 32.0448 17.701 31.998 20.2223C31.9881 20.7524 31.5141 21.1382 30.9865 21.086V21.086C30.4588 21.0339 30.0782 20.5633 30.08 20.0331C30.0867 18.0197 29.4897 16.0494 28.3668 14.3783C28.0711 13.9382 28.1266 13.3355 28.5365 12.9993V12.9993Z" fill="#73FF57"/>
<path d="M9.0286 21.2289C8.50171 21.2879 8.02269 20.9083 8.00597 20.3784C7.96085 18.9483 8.17179 17.519 8.63147 16.1586C9.09115 14.7982 9.79039 13.5338 10.6937 12.4242C11.0284 12.013 11.6395 12.0018 12.0226 12.3683V12.3683C12.4057 12.7349 12.4151 13.34 12.0866 13.7562C11.3742 14.6591 10.8201 15.6792 10.4504 16.7732C10.0808 17.8672 9.90259 19.0144 9.92134 20.1643C9.92998 20.6944 9.5555 21.1698 9.0286 21.2289V21.2289Z" fill="#D72626"/>
<g filter="url(#filter2_ddddd_4005_1227)">
<path d="M29.413 23.3831L27.7944 22.7756C27.5035 22.6666 27.1869 22.6666 26.8996 22.7756L25.2774 23.3831C24.9136 23.5212 24.6699 23.8742 24.6699 24.2633V25.9074C24.6699 26.624 24.9974 27.2423 25.4263 27.748C25.852 28.25 26.3757 28.6393 26.7685 28.8903C26.9468 29.0031 27.1467 29.0612 27.347 29.0612C27.5472 29.0612 27.7472 29.0031 27.9254 28.8903C28.7073 28.3883 30.0243 27.337 30.0243 25.9074V24.2633C30.0243 23.8742 29.7766 23.5212 29.413 23.3831ZM28.6637 25.2709L27.4634 26.4677C27.3396 26.5914 27.176 26.6533 27.016 26.6533C26.8524 26.6533 26.6885 26.5914 26.5651 26.4677L26.0957 25.9983C25.9866 25.8928 25.9866 25.7183 26.0957 25.6128C26.2012 25.5037 26.3721 25.5037 26.4812 25.6128L26.9503 26.0822C26.9867 26.1185 27.0412 26.1185 27.0775 26.0822L28.2778 24.8854C28.3834 24.7763 28.5543 24.7763 28.6634 24.8854C28.7689 24.9909 28.7692 25.1654 28.6637 25.2709Z" fill="url(#paint1_linear_4005_1227)"/>
</g>
</g>
</g>
<defs>
<filter id="filter0_ddddd_4005_1227" x="22.6528" y="21.6938" width="24.3877" height="37.3674" filterUnits="userSpaceOnUse" color-interpolation-filters="sRGB">
<feFlood flood-opacity="0" result="BackgroundImageFix"/>
<feColorMatrix in="SourceAlpha" type="matrix" values="0 0 0 0 0 0 0 0 0 0 0 0 0 0 0 0 0 0 127 0" result="hardAlpha"/>
<feOffset dy="1"/>
<feGaussianBlur stdDeviation="1"/>
<feColorMatrix type="matrix" values="0 0 0 0 0 0 0 0 0 0 0 0 0 0 0 0 0 0 0.35 0"/>
<feBlend mode="normal" in2="BackgroundImageFix" result="effect1_dropShadow_4005_1227"/>
<feColorMatrix in="SourceAlpha" type="matrix" values="0 0 0 0 0 0 0 0 0 0 0 0 0 0 0 0 0 0 127 0" result="hardAlpha"/>
<feOffset dx="2" dy="4"/>
<feGaussianBlur stdDeviation="2"/>
<feColorMatrix type="matrix" values="0 0 0 0 0 0 0 0 0 0 0 0 0 0 0 0 0 0 0.31 0"/>
<feBlend mode="normal" in2="effect1_dropShadow_4005_1227" result="effect2_dropShadow_4005_1227"/>
<feColorMatrix in="SourceAlpha" type="matrix" values="0 0 0 0 0 0 0 0 0 0 0 0 0 0 0 0 0 0 127 0" result="hardAlpha"/>
<feOffset dx="4" dy="8"/>
<feGaussianBlur stdDeviation="2.5"/>
<feColorMatrix type="matrix" values="0 0 0 0 0 0 0 0 0 0 0 0 0 0 0 0 0 0 0.18 0"/>
<feBlend mode="normal" in2="effect2_dropShadow_4005_1227" result="effect3_dropShadow_4005_1227"/>
<feColorMatrix in="SourceAlpha" type="matrix" values="0 0 0 0 0 0 0 0 0 0 0 0 0 0 0 0 0 0 127 0" result="hardAlpha"/>
<feOffset dx="6" dy="14"/>
<feGaussianBlur stdDeviation="3"/>
<feColorMatrix type="matrix" values="0 0 0 0 0 0 0 0 0 0 0 0 0 0 0 0 0 0 0.05 0"/>
<feBlend mode="normal" in2="effect3_dropShadow_4005_1227" result="effect4_dropShadow_4005_1227"/>
<feColorMatrix in="SourceAlpha" type="matrix" values="0 0 0 0 0 0 0 0 0 0 0 0 0 0 0 0 0 0 127 0" result="hardAlpha"/>
<feOffset dx="10" dy="23"/>
<feGaussianBlur stdDeviation="3.5"/>
<feColorMatrix type="matrix" values="0 0 0 0 0 0 0 0 0 0 0 0 0 0 0 0 0 0 0.01 0"/>
<feBlend mode="normal" in2="effect4_dropShadow_4005_1227" result="effect5_dropShadow_4005_1227"/>
<feBlend mode="normal" in="SourceGraphic" in2="effect5_dropShadow_4005_1227" result="shape"/>
</filter>
<filter id="filter1_f_4005_1227" x="-12" y="-11.9646" width="64" height="61.0259" filterUnits="userSpaceOnUse" color-interpolation-filters="sRGB">
<feFlood flood-opacity="0" result="BackgroundImageFix"/>
<feBlend mode="normal" in="SourceGraphic" in2="BackgroundImageFix" result="shape"/>
<feGaussianBlur stdDeviation="10" result="effect1_foregroundBlur_4005_1227"/>
</filter>
<filter id="filter2_ddddd_4005_1227" x="22.6699" y="21.6938" width="24.3545" height="37.3674" filterUnits="userSpaceOnUse" color-interpolation-filters="sRGB">
<feFlood flood-opacity="0" result="BackgroundImageFix"/>
<feColorMatrix in="SourceAlpha" type="matrix" values="0 0 0 0 0 0 0 0 0 0 0 0 0 0 0 0 0 0 127 0" result="hardAlpha"/>
<feOffset dy="1"/>
<feGaussianBlur stdDeviation="1"/>
<feColorMatrix type="matrix" values="0 0 0 0 0 0 0 0 0 0 0 0 0 0 0 0 0 0 0.35 0"/>
<feBlend mode="normal" in2="BackgroundImageFix" result="effect1_dropShadow_4005_1227"/>
<feColorMatrix in="SourceAlpha" type="matrix" values="0 0 0 0 0 0 0 0 0 0 0 0 0 0 0 0 0 0 127 0" result="hardAlpha"/>
<feOffset dx="2" dy="4"/>
<feGaussianBlur stdDeviation="2"/>
<feColorMatrix type="matrix" values="0 0 0 0 0 0 0 0 0 0 0 0 0 0 0 0 0 0 0.31 0"/>
<feBlend mode="normal" in2="effect1_dropShadow_4005_1227" result="effect2_dropShadow_4005_1227"/>
<feColorMatrix in="SourceAlpha" type="matrix" values="0 0 0 0 0 0 0 0 0 0 0 0 0 0 0 0 0 0 127 0" result="hardAlpha"/>
<feOffset dx="4" dy="8"/>
<feGaussianBlur stdDeviation="2.5"/>
<feColorMatrix type="matrix" values="0 0 0 0 0 0 0 0 0 0 0 0 0 0 0 0 0 0 0.18 0"/>
<feBlend mode="normal" in2="effect2_dropShadow_4005_1227" result="effect3_dropShadow_4005_1227"/>
<feColorMatrix in="SourceAlpha" type="matrix" values="0 0 0 0 0 0 0 0 0 0 0 0 0 0 0 0 0 0 127 0" result="hardAlpha"/>
<feOffset dx="6" dy="14"/>
<feGaussianBlur stdDeviation="3"/>
<feColorMatrix type="matrix" values="0 0 0 0 0 0 0 0 0 0 0 0 0 0 0 0 0 0 0.05 0"/>
<feBlend mode="normal" in2="effect3_dropShadow_4005_1227" result="effect4_dropShadow_4005_1227"/>
<feColorMatrix in="SourceAlpha" type="matrix" values="0 0 0 0 0 0 0 0 0 0 0 0 0 0 0 0 0 0 127 0" result="hardAlpha"/>
<feOffset dx="10" dy="23"/>
<feGaussianBlur stdDeviation="3.5"/>
<feColorMatrix type="matrix" values="0 0 0 0 0 0 0 0 0 0 0 0 0 0 0 0 0 0 0.01 0"/>
<feBlend mode="normal" in2="effect4_dropShadow_4005_1227" result="effect5_dropShadow_4005_1227"/>
<feBlend mode="normal" in="SourceGraphic" in2="effect5_dropShadow_4005_1227" result="shape"/>
</filter>
<linearGradient id="paint0_linear_4005_1227" x1="25.348" y1="23.8435" x2="28.0283" y2="29.0232" gradientUnits="userSpaceOnUse">
<stop stop-color="white"/>
<stop offset="0.723066" stop-color="#FAFAFA"/>
<stop offset="1" stop-color="#999999"/>
</linearGradient>
<linearGradient id="paint1_linear_4005_1227" x1="25.3608" y1="23.8435" x2="28.0507" y2="29.0096" gradientUnits="userSpaceOnUse">
<stop stop-color="white"/>
<stop offset="0.723066" stop-color="#FAFAFA"/>
<stop offset="1" stop-color="#999999"/>
</linearGradient>
<clipPath id="clip0_4005_1227">
<rect width="40" height="40" fill="white"/>
</clipPath>
</defs>
</svg>
