<svg xmlns="http://www.w3.org/2000/svg" viewBox="0 0 48 48">
  <path fill="#FFFC00" d="M24 4c-4.4 0-7.8 1.8-9.6 5.2-.8 1.6-1.2 3.4-1.2 5.8v3.4c-1.2.1-2.2.6-2.2 1.6 0 .9.8 1.5 2 1.8-.6 2.8-2.6 5.2-5.4 6.4-.6.2-.8.6-.8 1 0 1 1.2 1.8 3.2 2.2.2 0 .4.2.4.6 0 .4.2.8.8.8.8 0 1.8-.4 3.2-.4 1 0 1.8.4 2.8 1.2 1.6 1.2 3.2 2.2 6.8 2.2s5.2-1 6.8-2.2c1-.8 1.8-1.2 2.8-1.2 1.4 0 2.4.4 3.2.4.6 0 .8-.4.8-.8 0-.4.2-.6.4-.6 2-.4 3.2-1.2 3.2-2.2 0-.4-.2-.8-.8-1-2.8-1.2-4.8-3.6-5.4-6.4 1.2-.3 2-.9 2-1.8 0-1-1-1.5-2.2-1.6V15c0-2.4-.4-4.2-1.2-5.8C31.8 5.8 28.4 4 24 4z"/>
</svg>
