<svg xmlns="http://www.w3.org/2000/svg" viewBox="0 0 48 48">
  <path d="M38.4 21.7V16c-3.2 0-5.6-1-7.2-2.8-1.8-2-2.6-4.6-2.8-6.2h-5.8v25.6c0 2.8-2.2 5.2-5.2 5.2-1.6 0-3-.7-4-1.8-1-1-1.6-2.4-1.6-4 0-3.2 2.6-5.8 5.8-5.8.6 0 1.2.1 1.8.3V20.3c-.6-.1-1.2-.1-1.8-.1-6.6 0-12 5.4-12 12s5.4 12 12 12c6.6 0 12-5.4 12-12V21.8c2.4 1.6 5.2 2.5 8.2 2.5v-2.6h-.4z" fill="#25F4EE"/>
  <path d="M40 19.7V14c-3.2 0-5.6-1-7.2-2.8-1.8-2-2.6-4.6-2.8-6.2h-5.8v25.6c0 2.8-2.2 5.2-5.2 5.2-1.6 0-3-.7-4-1.8-1-1-1.6-2.4-1.6-4 0-3.2 2.6-5.8 5.8-5.8.6 0 1.2.1 1.8.3V18.3c-.6-.1-1.2-.1-1.8-.1-6.6 0-12 5.4-12 12s5.4 12 12 12c6.6 0 12-5.4 12-12V19.8c2.4 1.6 5.2 2.5 8.2 2.5v-2.6H40z" fill="#FE2C55"/>
  <path d="M39.2 20.7V15c-3.2 0-5.6-1-7.2-2.8-1.8-2-2.6-4.6-2.8-6.2H23.4V31.6c0 2.8-2.2 5.2-5.2 5.2-1.6 0-3-.7-4-1.8-1-1-1.6-2.4-1.6-4 0-3.2 2.6-5.8 5.8-5.8.6 0 1.2.1 1.8.3V19.3c-.6-.1-1.2-.1-1.8-.1-6.6 0-12 5.4-12 12s5.4 12 12 12c6.6 0 12-5.4 12-12V20.8c2.4 1.6 5.2 2.5 8.2 2.5v-2.6h-.4z" fill="#000"/>
</svg>
