<svg width="80" height="160" viewBox="0 0 80 160" fill="none" xmlns="http://www.w3.org/2000/svg">
<g clip-path="url(#clip0_4033_5801)">
<g clip-path="url(#clip1_4033_5801)">
<path opacity="0.3" d="M0.584163 84.8136C0.708155 84.7166 0.885749 84.6887 1.02267 84.7375C1.19071 84.7921 1.34402 84.8403 1.48927 84.8852L1.56015 84.9072C1.917 85.0193 2.22536 85.1147 2.53077 85.2438C7.35159 87.2569 11.112 90.6092 14.0283 95.4921C14.7483 96.6991 15.3 97.9487 15.7345 99.193C15.0633 95.025 14.9204 93.4041 14.8777 88.7555C14.8752 88.5604 14.8791 88.3624 14.8829 88.1651C14.8934 87.628 14.9031 87.1206 14.7935 86.655C14.6619 86.103 14.3863 85.5495 14.1197 85.0136C14.0447 84.8619 13.9697 84.7102 13.9079 84.577C13.8861 84.5506 13.8148 84.5058 13.7868 84.5006C12.4016 84.2613 11.1845 83.6517 10.0648 82.6375C8.93677 81.6104 8.01701 80.3631 7.33035 78.9293C4.86597 73.7899 3.69225 68.142 3.84164 62.1454C3.85545 61.567 3.93552 61.0052 4.02299 60.3943C4.06243 60.1205 4.1026 59.8405 4.13781 59.5505C4.157 59.3913 4.25946 59.2517 4.40409 59.1857C4.54771 59.1208 4.71877 59.1292 4.86079 59.2181C4.94651 59.2736 5.01923 59.3187 5.08572 59.3589C5.21449 59.4383 5.3127 59.5004 5.40549 59.5695C7.56174 61.1665 9.45307 63.138 11.0273 65.4276C13.5954 69.1694 15.0497 73.3697 15.374 77.9633C15.425 77.4533 15.4768 76.9428 15.5282 76.4329L15.5464 76.2478C15.7477 74.2475 15.9554 72.1793 16.1317 70.1445C16.1761 69.6293 16.2861 69.1297 16.3924 68.6461C16.5975 67.7165 16.7914 66.8384 16.5266 65.9087C16.4663 65.6984 16.4161 65.4868 16.366 65.276C16.2424 64.7537 15.6125 63.9396 14.6383 63.0433L14.6017 63.0095C14.2421 62.6951 12.3976 60.9557 11.3974 57.5716C10.3829 54.1335 10.534 50.567 10.6439 47.9626L10.6473 47.8934C10.7958 44.3133 11.24 41.6228 12.086 39.168C12.195 38.854 12.3236 38.5448 12.4597 38.2199C12.5308 38.051 12.6026 37.8761 12.677 37.6933C12.7381 37.5383 12.8801 37.4279 13.0433 37.4045L13.1237 37.3991C13.2651 37.402 13.3957 37.4675 13.4837 37.5779L14.2403 38.5288C17.8703 43.0923 19.5938 48.3903 19.3649 54.2761C19.3249 55.3126 19.2257 56.3747 19.0654 57.47C20.0728 54.2654 21.2418 51.15 22.5606 48.1571C22.588 48.0915 22.6065 48.01 22.6098 47.9406L22.6266 47.5279C22.6512 46.9324 22.6768 46.3162 22.6629 45.7094C22.661 45.6087 22.5987 45.4267 22.4651 45.2461C22.2753 44.9876 22.0642 44.7344 21.8456 44.471C21.473 44.0241 21.0882 43.5626 20.7864 43.0386C19.8145 41.3533 19.3811 39.3775 19.4228 36.8202C19.4679 33.8096 19.999 30.6519 21.0957 26.8819C21.6947 24.8253 22.5903 22.1558 24.2085 19.7529C24.3182 19.5913 24.4404 19.4397 24.5704 19.2791C24.6289 19.208 24.6905 19.1322 24.7531 19.0506C24.8445 18.9342 24.9688 18.8678 25.1674 18.8721C25.3255 18.887 25.4652 18.9791 25.5414 19.1192C27.4446 22.6812 28.3535 26.4625 28.318 30.6793C28.2892 34.1952 27.6755 37.208 26.9331 39.5836C28.7662 36.4215 30.7942 33.3719 32.9843 30.4849L33.0345 30.4193C33.0841 30.3567 33.1051 30.326 33.1013 30.3479C33.2538 29.402 33.3616 28.6448 33.4388 27.9852C33.4376 27.9751 33.4261 27.9193 33.3295 27.7524C33.1933 27.5119 33.0433 27.2758 32.884 27.0261C32.5643 26.5238 32.2344 26.004 32.0277 25.4256C31.4038 23.6797 31.2943 21.7123 31.6942 19.4132C32.5726 14.3246 34.9373 9.77623 38.922 5.50731C39.3321 5.06902 39.7833 4.68337 40.2607 4.27575L40.3927 4.16214C40.5794 4.00179 40.771 3.83769 40.9648 3.66407C41.0881 3.55268 41.2622 3.51374 41.4293 3.5662C41.5872 3.61941 41.7072 3.75229 41.7418 3.91499L41.8198 4.28657C41.8732 4.53304 41.9144 4.7275 41.944 4.92267C42.4086 8.03274 42.3058 11.3511 41.6289 15.0683C40.9574 18.755 39.7008 21.9203 37.8141 24.6528C40.6248 21.5083 43.3506 18.8756 46.191 16.5515C46.2038 16.5355 46.2232 16.4866 46.2248 16.4742C46.0427 14.6088 46.5407 12.8657 47.7484 11.1455C49.3343 8.88468 51.5101 7.18229 54.2151 6.08631C55.8336 5.43188 57.5088 4.85772 59.1489 4.29527C59.9345 4.02554 60.7201 3.75675 61.5294 3.46788C62.3428 3.16759 62.6892 3.11845 62.8732 3.29391C63.1101 3.52132 63.0483 3.70974 62.9364 4.05234L62.9004 4.16417C61.8521 7.42302 60.4952 9.98916 58.7513 12.0089C55.5497 15.7205 51.854 17.5619 47.4588 17.6376C47.3047 17.6434 47.1818 17.6829 47.1312 17.7202C46.504 18.1649 46.0416 18.5215 45.6322 18.876C44.3373 19.9992 43.0603 21.1981 41.8091 22.4627C43.6545 21.3809 45.8932 20.9228 48.401 21.1019C49.7734 21.1998 51.133 21.4282 52.4478 21.6489L52.498 21.6576C52.8868 21.7225 53.2735 21.7868 53.6593 21.8492C54.5046 21.9809 55.3558 22.1476 56.1077 22.294C56.4122 22.3547 57.1387 22.5345 57.2999 22.8883C57.3557 23.0092 57.3483 23.1404 57.2801 23.2582C57.22 23.3609 57.1541 23.4573 57.0827 23.5448C54.8508 26.293 52.3309 28.0805 49.3792 29.0088C45.7801 30.147 42.498 29.9767 39.575 28.4849C39.1285 28.2295 38.5866 28.0934 37.9649 28.0801C37.4957 28.07 37.1422 28.1358 37.0251 28.1597C36.8496 28.1846 36.6105 28.2763 36.5609 28.3375C34.6792 30.685 32.8879 33.1967 31.2093 35.8398C32.6092 34.5473 34.4186 33.6943 36.8714 33.1659C39.021 32.7073 41.2109 32.6459 43.3279 32.5857L44.0371 32.5654C44.7011 32.5461 45.3653 32.5186 46.0493 32.4905L47.1964 32.4451C47.3446 32.4483 47.4841 32.5222 47.5679 32.6419C47.6609 32.7709 47.6805 32.9361 47.6214 33.0828C47.573 33.2055 47.485 33.4216 47.4404 33.4935C45.1378 37.1366 42.4685 39.6335 39.281 41.1274C36.165 42.5864 33.3685 42.9301 30.5686 42.2046C30.2447 42.1201 29.8683 42.0708 29.4785 42.0625C28.282 42.037 27.4406 42.3803 27.2589 42.7108C25.6498 45.8355 24.205 49.0873 22.9487 52.4088C24.2311 50.7318 26.0051 49.3855 28.2371 48.3977C30.4545 47.4188 32.7607 46.5299 35.0298 45.6551C36.005 45.2802 36.9841 44.9039 37.9589 44.5184C38.104 44.4592 38.2737 44.4757 38.4061 44.5663C38.5361 44.6558 38.6117 44.8021 38.6087 44.9578C38.6029 45.2566 35.2211 54.0013 30.4909 57.3745C28.5613 58.7507 26.1903 60.158 23.2347 60.1634C22.3502 60.1622 21.4336 60.2662 20.7279 61.0278C20.62 61.1492 20.4782 61.2424 20.3247 61.2904C20.0874 61.362 20.0197 61.5033 19.894 61.9875C18.8599 65.9404 18.0835 70.0209 17.5735 74.1707C17.7114 73.7516 17.8702 73.3288 18.0516 72.9003C19.146 70.3055 20.9469 68.0524 23.7187 65.8105C25.1476 64.6499 26.6421 63.5285 28.0873 62.4435L28.1562 62.3922C28.8145 61.8979 29.4712 61.4054 30.1262 60.9067C30.2614 60.8037 30.3933 60.6973 30.5464 60.5732L30.9554 60.2407C31.0986 60.1259 31.3088 60.106 31.4718 60.1909C31.6392 60.2793 31.7369 60.4568 31.7202 60.6438C31.6949 60.9245 31.6738 61.1899 31.6537 61.4449L31.6437 61.5641C31.6015 62.0888 31.5619 62.5838 31.4986 63.0722C30.9013 67.8275 29.391 71.7763 26.8816 75.1433C25.3282 77.2244 23.1086 79.7617 19.7021 80.9112C18.8731 81.1927 18.2674 81.6319 17.6118 82.4307C16.9937 83.1785 16.8679 83.871 16.8643 84.7462C16.8506 88.411 17.0439 92.0505 17.4399 95.6198C17.5681 94.6317 17.8184 93.6171 18.1931 92.5649C18.9684 90.3869 20.1518 88.2784 21.8112 86.1195C23.2438 84.2495 24.7329 82.3747 26.1731 80.5599L26.2688 80.4394C26.84 79.7206 27.4107 79.001 27.9664 78.2969C28.071 78.1521 28.2187 78.1025 28.3039 78.0753C28.4251 78.0201 28.5687 78.017 28.695 78.0734C28.8188 78.1292 28.9126 78.235 28.9524 78.3629L28.9678 78.4134C28.9898 78.4808 29.0071 78.5405 29.0156 78.6002C29.8729 84.3329 29.1791 89.4378 26.8953 94.2085C25.7797 96.5416 24.2931 99.1775 21.7263 101.042C20.5543 101.893 19.6186 103.103 19.0916 104.447C18.9799 104.736 18.9812 104.863 18.9925 104.912C19.9777 109.321 21.2938 113.582 22.9159 117.622C22.5192 115.503 22.5925 113.286 23.1369 111.001C23.9096 107.761 25.1903 104.632 26.3303 101.955L26.6719 101.153C27.2065 99.8973 27.7446 98.6324 28.3006 97.3214C28.3711 97.1539 28.5356 97.0418 28.7522 97.0363C28.9227 97.0397 29.0776 97.1395 29.156 97.2971L29.3208 97.6186C29.393 97.7601 29.4607 97.8911 29.5183 98.0262C31.611 102.956 32.2525 107.976 31.4237 112.95C30.8313 116.506 29.8955 119.041 28.3892 121.171C27.6096 122.272 26.8653 123.501 26.7048 125.028C26.6669 125.389 26.6765 125.64 26.8341 125.927C28.6187 129.166 30.6305 132.229 32.8435 135.082C32.8352 135.066 32.8271 135.051 32.8188 135.035C31.2448 132.052 31.2575 128.862 31.4772 126.135C31.6665 123.797 31.9832 121.466 32.2881 119.212L32.3058 119.081C32.4283 118.179 32.5505 117.276 32.6636 116.371C32.7289 115.858 32.8003 115.346 32.8738 114.826L32.9714 114.122C32.9928 113.966 33.0918 113.833 33.2317 113.767C33.4918 113.64 33.9046 113.855 34.3448 114.391C37.369 118.078 39.2098 122.21 39.8167 126.673C40.4461 131.302 39.9794 135.241 38.3887 138.716C38.3464 138.809 38.3435 139 38.3428 139.063L38.3853 141.083C38.3946 141.229 38.4688 141.394 38.5317 141.456C41.5646 144.466 44.9169 147.098 48.5265 149.306C46.8284 147.724 45.6251 145.682 44.8696 143.11C44.0323 140.259 43.6316 137.302 43.2432 134.435L43.2093 134.18C43.0715 133.173 42.9268 132.167 42.7792 131.139L42.6124 129.978C42.5886 129.808 42.6591 129.642 42.7933 129.543C42.9265 129.443 43.1169 129.422 43.2668 129.489L43.4306 129.56C43.6054 129.635 43.7576 129.702 43.9009 129.779C50.7367 133.336 55.1253 141.386 54.3365 148.919C54.2127 150.099 54.3007 151.211 54.6056 152.317C54.6341 152.418 54.7299 152.529 54.7693 152.548C58.0207 153.986 61.1182 155.05 64.2413 155.802C64.4018 155.842 64.5274 155.959 64.5766 156.114C64.6264 156.27 64.5912 156.437 64.4812 156.562C64.1327 156.953 63.8274 157.377 63.5746 157.821C63.4709 158.003 63.2302 158.092 63.0524 158.043C60.5085 157.411 58.0345 156.612 55.6973 155.663C55.5085 155.583 55.3639 155.544 55.2274 155.564C54.7021 155.622 54.1466 155.716 53.5291 155.854C53.4018 155.881 53.2956 155.937 53.2936 155.932C51.8999 158.55 49.5604 160.187 46.1387 160.935C45.3945 161.094 44.6279 161.208 43.8603 161.271C43.0568 161.337 42.1617 161.361 41.2005 161.34C39.8689 161.312 38.9208 161.21 38.9092 161.209C35.9638 160.819 33.4557 160.109 31.243 159.035C30.335 158.596 29.3021 158.007 28.5192 156.98C28.3696 156.783 28.4007 156.505 28.5902 156.347C30.8968 154.416 33.234 153.027 35.7367 152.101C39.4445 150.733 42.8039 150.413 46.0772 151.108C46.5663 151.213 47.0433 151.342 47.5066 151.488C44.4685 149.606 41.5676 147.407 38.8358 144.914C38.7835 144.865 38.6968 144.821 38.6287 144.808C38.1754 144.723 37.5734 144.619 36.9564 144.562C36.8993 144.56 36.826 144.586 36.8178 144.589C35.1073 146.406 32.9325 147.261 30.1692 147.202C30.0282 147.199 29.8869 147.193 29.7461 147.185C26.7434 147.025 23.7386 146.144 20.8138 144.565C18.6885 143.411 16.4756 142.073 14.698 140.111C14.304 139.675 13.9541 139.184 13.6452 138.75L13.615 138.708C13.4782 138.517 13.3402 138.324 13.198 138.133C13.1205 138.031 13.0897 137.9 13.1131 137.769C13.1378 137.643 13.2142 137.532 13.342 137.453C13.3743 137.437 14.1507 137.045 14.8575 136.792C19.5905 135.096 24.3369 135.014 28.8335 136.553C30.3054 137.056 31.6859 137.792 33.0241 138.798C30.5701 135.858 28.3074 132.645 26.2634 129.195C26.2414 129.159 26.1833 129.06 26.1641 129.042C25.9819 128.922 25.7953 128.807 25.609 128.695C25.2752 128.492 24.9297 128.281 24.606 128.033C24.333 127.823 24.2551 127.816 23.9718 127.988C23.5708 128.234 23.1077 128.356 22.7042 128.452C20.3441 128.997 17.9827 128.649 15.3877 127.377C13.0172 126.217 11.2122 124.424 9.61408 122.66C7.2895 120.087 5.78276 117.778 4.87197 115.394C4.68064 114.893 4.54725 114.377 4.40861 113.838C4.35147 113.611 4.293 113.385 4.23042 113.162C4.16198 112.923 4.29464 112.674 4.5335 112.596L4.73044 112.586C5.69841 112.606 14.3302 112.932 19.2863 117.887C20.3645 118.965 21.3277 120.106 22.2031 121.352C20.2865 117.125 18.6781 112.678 17.4017 108.07L17.3831 108.003C17.3677 107.946 17.3447 107.861 17.3287 107.838L16.0426 106.015C15.9947 105.942 15.9888 105.942 15.9113 105.941C15.877 105.94 15.8392 105.941 15.7959 105.943L15.5134 105.954C14.5292 105.993 13.9507 105.972 13.4762 105.888C11.6012 105.554 9.92182 104.581 8.34253 102.912C4.64911 99.0101 2.14853 94.186 0.698315 88.1666C0.542481 87.5218 0.508168 86.873 0.471507 86.1849C0.455012 85.8731 0.436322 85.552 0.407044 85.2197C0.395183 85.0603 0.461038 84.91 0.584163 84.8136Z" fill="url(#paint0_linear_4033_5801)"/>
</g>
</g>
<defs>
<linearGradient id="paint0_linear_4033_5801" x1="24.6131" y1="-6.9377" x2="60.0918" y2="175.508" gradientUnits="userSpaceOnUse">
<stop stop-color="#C9C9C9"/>
<stop offset="1" stop-color="#C9C9C9" stop-opacity="0"/>
</linearGradient>
<clipPath id="clip0_4033_5801">
<rect width="80" height="160" fill="white"/>
</clipPath>
<clipPath id="clip1_4033_5801">
<rect width="82" height="160" fill="white" transform="matrix(-1 0 0 1 82 0)"/>
</clipPath>
</defs>
</svg>
