<svg width="80" height="160" viewBox="0 0 80 160" fill="none" xmlns="http://www.w3.org/2000/svg">
<g clip-path="url(#clip0_4033_5804)">
<g clip-path="url(#clip1_4033_5804)">
<path opacity="0.3" d="M79.4158 84.8136C79.2918 84.7166 79.1143 84.6887 78.9773 84.7375C78.8093 84.7921 78.656 84.8403 78.5107 84.8852L78.4398 84.9072C78.083 85.0193 77.7746 85.1147 77.4692 85.2438C72.6484 87.2569 68.888 90.6092 65.9717 95.4921C65.2517 96.6991 64.7 97.9487 64.2655 99.193C64.9367 95.025 65.0796 93.4041 65.1223 88.7555C65.1248 88.5604 65.1209 88.3624 65.1171 88.1651C65.1066 87.628 65.0969 87.1206 65.2065 86.655C65.3381 86.103 65.6137 85.5495 65.8803 85.0136C65.9553 84.8619 66.0303 84.7102 66.0921 84.577C66.1139 84.5506 66.1852 84.5058 66.2132 84.5006C67.5984 84.2613 68.8155 83.6517 69.9352 82.6375C71.0632 81.6104 71.983 80.3631 72.6697 78.9293C75.134 73.7899 76.3078 68.142 76.1584 62.1454C76.1445 61.567 76.0645 61.0052 75.977 60.3943C75.9376 60.1205 75.8974 59.8405 75.8622 59.5505C75.843 59.3913 75.7405 59.2517 75.5959 59.1857C75.4523 59.1208 75.2812 59.1292 75.1392 59.2181C75.0535 59.2736 74.9808 59.3187 74.9143 59.3589C74.7855 59.4383 74.6873 59.5004 74.5945 59.5695C72.4383 61.1665 70.5469 63.138 68.9727 65.4276C66.4046 69.1694 64.9503 73.3697 64.626 77.9633C64.575 77.4533 64.5232 76.9428 64.4718 76.4329L64.4536 76.2478C64.2523 74.2475 64.0446 72.1793 63.8683 70.1445C63.8239 69.6293 63.7139 69.1297 63.6076 68.6461C63.4025 67.7165 63.2086 66.8384 63.4734 65.9087C63.5337 65.6984 63.5839 65.4868 63.634 65.276C63.7576 64.7537 64.3875 63.9396 65.3617 63.0433L65.3983 63.0095C65.7579 62.6951 67.6024 60.9557 68.6026 57.5716C69.6171 54.1335 69.466 50.567 69.3561 47.9626L69.3527 47.8934C69.2042 44.3133 68.76 41.6228 67.914 39.168C67.805 38.854 67.6764 38.5448 67.5403 38.2199C67.4692 38.051 67.3974 37.8761 67.323 37.6933C67.2619 37.5383 67.1199 37.4279 66.9567 37.4045L66.8763 37.3991C66.7349 37.402 66.6043 37.4675 66.5163 37.5779L65.7597 38.5288C62.1297 43.0923 60.4062 48.3903 60.6351 54.2761C60.6751 55.3126 60.7743 56.3747 60.9346 57.47C59.9272 54.2654 58.7582 51.15 57.4394 48.1571C57.412 48.0915 57.3935 48.01 57.3902 47.9406L57.3734 47.5279C57.3488 46.9324 57.3232 46.3162 57.3371 45.7094C57.339 45.6087 57.4013 45.4267 57.5349 45.2461C57.7247 44.9876 57.9358 44.7344 58.1544 44.471C58.527 44.0241 58.9118 43.5626 59.2136 43.0386C60.1855 41.3533 60.6189 39.3775 60.5772 36.8202C60.5321 33.8096 60.001 30.6519 58.9043 26.8819C58.3053 24.8253 57.4097 22.1558 55.7915 19.7529C55.6818 19.5913 55.5596 19.4397 55.4296 19.2791C55.3711 19.208 55.3095 19.1322 55.2469 19.0506C55.1555 18.9342 55.0312 18.8678 54.8326 18.8721C54.6745 18.887 54.5348 18.9791 54.4586 19.1192C52.5554 22.6812 51.6465 26.4625 51.682 30.6793C51.7108 34.1952 52.3245 37.208 53.0669 39.5836C51.2338 36.4215 49.2058 33.3719 47.0157 30.4849L46.9655 30.4193C46.9159 30.3567 46.8949 30.326 46.8987 30.3479C46.7462 29.402 46.6384 28.6448 46.5612 27.9852C46.5624 27.9751 46.5739 27.9193 46.6705 27.7524C46.8067 27.5119 46.9567 27.2758 47.116 27.0261C47.4357 26.5238 47.7656 26.004 47.9723 25.4256C48.5962 23.6797 48.7057 21.7123 48.3058 19.4132C47.4274 14.3246 45.0627 9.77623 41.078 5.50731C40.6679 5.06902 40.2167 4.68337 39.7393 4.27575L39.6073 4.16214C39.4206 4.00179 39.229 3.83769 39.0352 3.66407C38.9119 3.55268 38.7378 3.51374 38.5707 3.5662C38.4128 3.61941 38.2928 3.75229 38.2582 3.91499L38.1802 4.28657C38.1268 4.53304 38.0856 4.7275 38.056 4.92267C37.5914 8.03274 37.6942 11.3511 38.3711 15.0683C39.0426 18.755 40.2992 21.9203 42.1859 24.6528C39.3752 21.5083 36.6494 18.8756 33.809 16.5515C33.7962 16.5355 33.7768 16.4866 33.7752 16.4742C33.9573 14.6088 33.4593 12.8657 32.2516 11.1455C30.6657 8.88468 28.4899 7.18229 25.7849 6.08631C24.1664 5.43188 22.4912 4.85772 20.8511 4.29527C20.0655 4.02554 19.2799 3.75675 18.4706 3.46788C17.6572 3.16759 17.3108 3.11845 17.1268 3.29391C16.8899 3.52132 16.9517 3.70974 17.0636 4.05234L17.0996 4.16417C18.1479 7.42302 19.5048 9.98916 21.2487 12.0089C24.4503 15.7205 28.146 17.5619 32.5412 17.6376C32.6953 17.6434 32.8182 17.6829 32.8688 17.7202C33.496 18.1649 33.9584 18.5215 34.3678 18.876C35.6627 19.9992 36.9397 21.1981 38.1909 22.4627C36.3455 21.3809 34.1068 20.9228 31.599 21.1019C30.2266 21.1998 28.867 21.4282 27.5522 21.6489L27.502 21.6576C27.1132 21.7225 26.7265 21.7868 26.3407 21.8492C25.4954 21.9809 24.6442 22.1476 23.8923 22.294C23.5878 22.3547 22.8613 22.5345 22.7001 22.8883C22.6443 23.0092 22.6517 23.1404 22.7199 23.2582C22.78 23.3609 22.8459 23.4573 22.9173 23.5448C25.1492 26.293 27.6691 28.0805 30.6208 29.0088C34.2199 30.147 37.502 29.9767 40.425 28.4849C40.8715 28.2295 41.4134 28.0934 42.0351 28.0801C42.5043 28.07 42.8578 28.1358 42.9749 28.1597C43.1504 28.1846 43.3895 28.2763 43.4391 28.3375C45.3208 30.685 47.1121 33.1967 48.7907 35.8398C47.3908 34.5473 45.5814 33.6943 43.1286 33.1659C40.979 32.7073 38.7891 32.6459 36.6721 32.5857L35.9629 32.5654C35.2989 32.5461 34.6347 32.5186 33.9507 32.4905L32.8036 32.4451C32.6554 32.4483 32.5159 32.5222 32.4321 32.6419C32.3391 32.7709 32.3195 32.9361 32.3786 33.0828C32.427 33.2055 32.515 33.4216 32.5596 33.4935C34.8622 37.1366 37.5315 39.6335 40.719 41.1274C43.835 42.5864 46.6315 42.9301 49.4314 42.2046C49.7553 42.1201 50.1317 42.0708 50.5215 42.0625C51.718 42.037 52.5594 42.3803 52.7411 42.7108C54.3502 45.8355 55.795 49.0873 57.0513 52.4088C55.7689 50.7318 53.9949 49.3855 51.7629 48.3977C49.5455 47.4188 47.2393 46.5299 44.9702 45.6551C43.995 45.2802 43.0159 44.9039 42.0411 44.5184C41.896 44.4592 41.7263 44.4757 41.5939 44.5663C41.4639 44.6558 41.3883 44.8021 41.3913 44.9578C41.3971 45.2566 44.7789 54.0013 49.5091 57.3745C51.4387 58.7507 53.8097 60.158 56.7653 60.1634C57.6498 60.1622 58.5664 60.2662 59.2721 61.0278C59.38 61.1492 59.5218 61.2424 59.6753 61.2904C59.9126 61.362 59.9803 61.5033 60.106 61.9875C61.1401 65.9404 61.9165 70.0209 62.4265 74.1707C62.2886 73.7516 62.1298 73.3288 61.9484 72.9003C60.854 70.3055 59.0531 68.0524 56.2813 65.8105C54.8524 64.6499 53.3579 63.5285 51.9127 62.4435L51.8438 62.3922C51.1855 61.8979 50.5288 61.4054 49.8738 60.9067C49.7386 60.8037 49.6067 60.6973 49.4536 60.5732L49.0446 60.2407C48.9014 60.1259 48.6912 60.106 48.5282 60.1909C48.3608 60.2793 48.2631 60.4568 48.2798 60.6438C48.3051 60.9245 48.3262 61.1899 48.3463 61.4449L48.3563 61.5641C48.3985 62.0888 48.4381 62.5838 48.5014 63.0722C49.0987 67.8275 50.609 71.7763 53.1184 75.1433C54.6718 77.2244 56.8914 79.7617 60.2979 80.9112C61.1269 81.1927 61.7326 81.6319 62.3882 82.4307C63.0063 83.1785 63.1321 83.871 63.1357 84.7462C63.1494 88.411 62.9561 92.0505 62.5601 95.6198C62.4319 94.6317 62.1816 93.6171 61.8069 92.5649C61.0316 90.3869 59.8482 88.2784 58.1888 86.1195C56.7562 84.2495 55.2671 82.3747 53.8269 80.5599L53.7312 80.4394C53.16 79.7206 52.5893 79.001 52.0336 78.2969C51.929 78.1521 51.7813 78.1025 51.6961 78.0753C51.5749 78.0201 51.4313 78.017 51.305 78.0734C51.1812 78.1292 51.0874 78.235 51.0476 78.3629L51.0322 78.4134C51.0102 78.4808 50.9929 78.5405 50.9844 78.6002C50.1271 84.3329 50.8209 89.4378 53.1047 94.2085C54.2203 96.5416 55.7069 99.1775 58.2737 101.042C59.4457 101.893 60.3814 103.103 60.9084 104.447C61.0201 104.736 61.0188 104.863 61.0075 104.912C60.0223 109.321 58.7062 113.582 57.0841 117.622C57.4808 115.503 57.4075 113.286 56.8631 111.001C56.0904 107.761 54.8097 104.632 53.6697 101.955L53.3281 101.153C52.7935 99.8973 52.2554 98.6324 51.6994 97.3214C51.6289 97.1539 51.4644 97.0418 51.2478 97.0363C51.0773 97.0397 50.9224 97.1395 50.844 97.2971L50.6792 97.6186C50.607 97.7601 50.5393 97.8911 50.4817 98.0262C48.389 102.956 47.7475 107.976 48.5763 112.95C49.1687 116.506 50.1045 119.041 51.6108 121.171C52.3904 122.272 53.1347 123.501 53.2952 125.028C53.3331 125.389 53.3235 125.64 53.1659 125.927C51.3813 129.166 49.3695 132.229 47.1565 135.082C47.1648 135.066 47.1729 135.051 47.1812 135.035C48.7552 132.052 48.7425 128.862 48.5228 126.135C48.3335 123.797 48.0168 121.466 47.7119 119.212L47.6942 119.081C47.5717 118.179 47.4495 117.276 47.3364 116.371C47.2711 115.858 47.1997 115.346 47.1262 114.826L47.0286 114.122C47.0072 113.966 46.9082 113.833 46.7683 113.767C46.5082 113.64 46.0954 113.855 45.6552 114.391C42.631 118.078 40.7902 122.21 40.1833 126.673C39.5539 131.302 40.0206 135.241 41.6113 138.716C41.6536 138.809 41.6565 139 41.6572 139.063L41.6147 141.083C41.6054 141.229 41.5312 141.394 41.4683 141.456C38.4354 144.466 35.0831 147.098 31.4735 149.306C33.1716 147.724 34.3749 145.682 35.1304 143.11C35.9677 140.259 36.3684 137.302 36.7568 134.435L36.7907 134.18C36.9285 133.173 37.0732 132.167 37.2208 131.139L37.3876 129.978C37.4114 129.808 37.3409 129.642 37.2067 129.543C37.0735 129.443 36.8831 129.422 36.7332 129.489L36.5694 129.56C36.3946 129.635 36.2424 129.702 36.0991 129.779C29.2633 133.336 24.8747 141.386 25.6635 148.919C25.7873 150.099 25.6993 151.211 25.3944 152.317C25.3659 152.418 25.2701 152.529 25.2307 152.548C21.9793 153.986 18.8818 155.05 15.7587 155.802C15.5982 155.842 15.4726 155.959 15.4234 156.114C15.3736 156.27 15.4088 156.437 15.5188 156.562C15.8673 156.953 16.1726 157.377 16.4254 157.821C16.5291 158.003 16.7698 158.092 16.9476 158.043C19.4915 157.411 21.9655 156.612 24.3027 155.663C24.4915 155.583 24.6361 155.544 24.7726 155.564C25.2979 155.622 25.8534 155.716 26.4709 155.854C26.5982 155.881 26.7044 155.937 26.7064 155.932C28.1001 158.55 30.4396 160.187 33.8613 160.935C34.6055 161.094 35.3721 161.208 36.1397 161.271C36.9432 161.337 37.8383 161.361 38.7995 161.34C40.1311 161.312 41.0792 161.21 41.0908 161.209C44.0362 160.819 46.5443 160.109 48.757 159.035C49.665 158.596 50.6979 158.007 51.4808 156.98C51.6304 156.783 51.5993 156.505 51.4098 156.347C49.1032 154.416 46.766 153.027 44.2633 152.101C40.5555 150.733 37.1961 150.413 33.9228 151.108C33.4337 151.213 32.9567 151.342 32.4934 151.488C35.5315 149.606 38.4324 147.407 41.1642 144.914C41.2165 144.865 41.3032 144.821 41.3713 144.808C41.8246 144.723 42.4266 144.619 43.0436 144.562C43.1007 144.56 43.174 144.586 43.1822 144.589C44.8927 146.406 47.0675 147.261 49.8308 147.202C49.9718 147.199 50.1131 147.193 50.2539 147.185C53.2566 147.025 56.2614 146.144 59.1862 144.565C61.3115 143.411 63.5244 142.073 65.302 140.111C65.696 139.675 66.0459 139.184 66.3548 138.75L66.385 138.708C66.5218 138.517 66.6598 138.324 66.802 138.133C66.8795 138.031 66.9103 137.9 66.8869 137.769C66.8622 137.643 66.7858 137.532 66.658 137.453C66.6257 137.437 65.8493 137.045 65.1425 136.792C60.4095 135.096 55.6631 135.014 51.1665 136.553C49.6946 137.056 48.3141 137.792 46.9759 138.798C49.4299 135.858 51.6926 132.645 53.7366 129.195C53.7586 129.159 53.8167 129.06 53.8359 129.042C54.0181 128.922 54.2047 128.807 54.391 128.695C54.7248 128.492 55.0703 128.281 55.394 128.033C55.667 127.823 55.7449 127.816 56.0282 127.988C56.4292 128.234 56.8923 128.356 57.2958 128.452C59.6559 128.997 62.0173 128.649 64.6123 127.377C66.9828 126.217 68.7878 124.424 70.3859 122.66C72.7105 120.087 74.2172 117.778 75.128 115.394C75.3194 114.893 75.4528 114.377 75.5914 113.838C75.6485 113.611 75.707 113.385 75.7696 113.162C75.838 112.923 75.7054 112.674 75.4665 112.596L75.2696 112.586C74.3016 112.606 65.6698 112.932 60.7137 117.887C59.6355 118.965 58.6723 120.106 57.7969 121.352C59.7135 117.125 61.3219 112.678 62.5983 108.07L62.6169 108.003C62.6323 107.946 62.6553 107.861 62.6713 107.838L63.9574 106.015C64.0053 105.942 64.0112 105.942 64.0887 105.941C64.123 105.94 64.1608 105.941 64.2041 105.943L64.4866 105.954C65.4708 105.993 66.0493 105.972 66.5238 105.888C68.3988 105.554 70.0782 104.581 71.6575 102.912C75.3509 99.0101 77.8515 94.186 79.3017 88.1666C79.4575 87.5218 79.4918 86.873 79.5285 86.1849C79.545 85.8731 79.5637 85.552 79.593 85.2197C79.6048 85.0603 79.539 84.91 79.4158 84.8136Z" fill="url(#paint0_linear_4033_5804)"/>
</g>
</g>
<defs>
<linearGradient id="paint0_linear_4033_5804" x1="55.3869" y1="-6.9377" x2="19.9082" y2="175.508" gradientUnits="userSpaceOnUse">
<stop stop-color="#C9C9C9"/>
<stop offset="1" stop-color="#C9C9C9" stop-opacity="0"/>
</linearGradient>
<clipPath id="clip0_4033_5804">
<rect width="80" height="160" fill="white" transform="matrix(-1 0 0 1 80 0)"/>
</clipPath>
<clipPath id="clip1_4033_5804">
<rect width="82" height="160" fill="white" transform="translate(-2)"/>
</clipPath>
</defs>
</svg>
